<svg width="30" height="30" viewBox="0 0 30 30" fill="none" xmlns="http://www.w3.org/2000/svg">
<path d="M15 1.20001C7.38573 1.20001 1.20001 7.38573 1.20001 15C1.20001 17.4475 1.87122 19.7315 2.99064 21.7254L1.22228 28.0383C1.19403 28.1393 1.19275 28.246 1.21858 28.3476C1.2444 28.4493 1.29643 28.5424 1.36946 28.6177C1.4425 28.693 1.534 28.7478 1.63484 28.7767C1.73567 28.8056 1.84232 28.8076 1.94415 28.7824L8.52658 27.1512C10.4608 28.1838 12.6556 28.8 15 28.8C22.6143 28.8 28.8 22.6143 28.8 15C28.8 7.38573 22.6143 1.20001 15 1.20001ZM15 2.40001C21.9657 2.40001 27.6 8.03429 27.6 15C27.6 21.9657 21.9657 27.6 15 27.6C12.7668 27.6 10.6753 27.0178 8.85704 26.0004C8.72406 25.9261 8.56779 25.9051 8.41993 25.9418L2.65548 27.3703L4.20118 21.8555C4.2233 21.7775 4.22941 21.6959 4.21914 21.6156C4.20887 21.5352 4.18243 21.4578 4.14142 21.3879C3.03642 19.5142 2.40001 17.3341 2.40001 15C2.40001 8.03429 8.03429 2.40001 15 2.40001ZM9.98556 7.80001C9.60094 7.80001 9.05164 7.94311 8.6004 8.42931C8.32937 8.72134 7.20001 9.82172 7.20001 11.7563C7.20001 13.7732 8.59885 15.5135 8.76798 15.7371H8.76915V15.7383C8.75311 15.7172 8.98383 16.0513 9.29181 16.452C9.59979 16.8526 10.0305 17.3788 10.5715 17.9485C11.6536 19.0878 13.175 20.4045 15.0633 21.2098C15.9329 21.5801 16.6189 21.8037 17.1387 21.9668C18.1019 22.2693 18.9793 22.2233 19.6383 22.1262C20.1316 22.0535 20.6741 21.8167 21.211 21.477C21.7478 21.1373 22.2739 20.7148 22.5059 20.0731C22.6721 19.613 22.7566 19.1878 22.7871 18.8379C22.8024 18.663 22.8043 18.5086 22.793 18.3656C22.7816 18.2227 22.7938 18.1132 22.6606 17.8945C22.3812 17.4359 22.0649 17.4239 21.7348 17.2606C21.5514 17.1698 21.0292 16.9148 20.5055 16.6652C19.9823 16.416 19.5294 16.1952 19.2504 16.0957C19.0742 16.0323 18.8589 15.941 18.5485 15.9762C18.238 16.0113 17.9313 16.2354 17.7527 16.5C17.5835 16.7509 16.9022 17.555 16.6945 17.7914C16.6918 17.7897 16.7098 17.798 16.6277 17.7574C16.3709 17.6303 16.0567 17.5222 15.5918 17.277C15.1269 17.0317 14.5454 16.6696 13.909 16.1086V16.1074C12.9618 15.2736 12.2984 14.2267 12.0891 13.875C12.1032 13.8582 12.0874 13.8786 12.1172 13.8492L12.1184 13.8481C12.3323 13.6374 12.5219 13.3857 12.682 13.2012C12.9092 12.9395 13.0094 12.7089 13.118 12.4934C13.3344 12.0639 13.2139 11.5913 13.0887 11.3426V11.3414C13.0973 11.3586 13.021 11.1901 12.9387 10.9957C12.8562 10.8008 12.751 10.548 12.6387 10.2785C12.414 9.73951 12.1632 9.13496 12.0141 8.78087V8.7797C11.8384 8.36262 11.6006 8.06216 11.2899 7.9172C10.9791 7.77224 10.7045 7.81345 10.6934 7.8129H10.6922C10.4704 7.80267 10.227 7.80001 9.98556 7.80001ZM9.98556 9.00001C10.2169 9.00001 10.4449 9.00283 10.636 9.01173C10.8324 9.02152 10.8202 9.02233 10.7824 9.0047C10.744 8.9868 10.7961 8.98098 10.9078 9.24611C11.0539 9.59282 11.3059 10.1996 11.5313 10.7402C11.6439 11.0106 11.7494 11.2643 11.8336 11.4633C11.9178 11.6623 11.9635 11.7734 12.0164 11.8793V11.8805L12.0176 11.8817C12.0695 11.9841 12.0649 11.9185 12.0469 11.9543C11.9203 12.2056 11.9031 12.2673 11.775 12.4149C11.58 12.6395 11.3811 12.8901 11.2758 12.9938C11.1837 13.0843 11.0175 13.2252 10.9137 13.5012C10.8097 13.7776 10.8583 14.1568 11.025 14.4399C11.247 14.8168 11.9787 16.0076 13.1156 17.0086C13.8317 17.6398 14.4988 18.0576 15.0317 18.3387C15.5646 18.6198 15.9986 18.784 16.0957 18.832C16.3263 18.9462 16.5784 19.0348 16.8715 18.9996C17.1646 18.9644 17.4173 18.7866 17.5781 18.6047L17.5793 18.6035C17.7934 18.3608 18.4295 17.6344 18.7348 17.1867C18.7477 17.1913 18.7435 17.1878 18.8449 17.2242V17.2254H18.8461C18.8924 17.2419 19.4726 17.5016 19.9899 17.7481C20.5071 17.9945 21.0322 18.2507 21.2027 18.3352C21.4489 18.457 21.5653 18.5363 21.5953 18.5367C21.5974 18.5895 21.5994 18.6467 21.5918 18.7336C21.5708 18.9746 21.5064 19.3081 21.3774 19.6652C21.3142 19.8401 20.985 20.2006 20.5699 20.4633C20.1548 20.726 19.6496 20.9115 19.4625 20.9391C18.9 21.022 18.232 21.0522 17.4985 20.8219C16.9898 20.6622 16.3556 20.4556 15.5344 20.1059C13.8689 19.3956 12.4534 18.1869 11.4422 17.1223C10.9366 16.59 10.5315 16.0944 10.2434 15.7195C9.95573 15.3454 9.83013 15.1506 9.7254 15.0129L9.72423 15.0117C9.53833 14.7659 8.40001 13.1825 8.40001 11.7563C8.40001 10.2468 9.10111 9.65487 9.48048 9.24611C9.67965 9.03151 9.89738 9.00001 9.98556 9.00001Z" fill="#5B6339"/>
</svg>
