<svg width="30" height="30" viewBox="0 0 30 30" fill="none" xmlns="http://www.w3.org/2000/svg">
<path d="M8.39999 2.39999C5.09319 2.39999 2.39999 5.09319 2.39999 8.39999V21.6C2.39999 24.9068 5.09319 27.6 8.39999 27.6H21.6C24.9068 27.6 27.6 24.9068 27.6 21.6V8.39999C27.6 5.09319 24.9068 2.39999 21.6 2.39999H8.39999ZM8.39999 3.59999H21.6C24.2584 3.59999 26.4 5.74159 26.4 8.39999V21.6C26.4 24.2584 24.2584 26.4 21.6 26.4H8.39999C5.74159 26.4 3.59999 24.2584 3.59999 21.6V8.39999C3.59999 5.74159 5.74159 3.59999 8.39999 3.59999ZM7.79999 8.99999C6.81301 8.99999 5.99999 9.81301 5.99999 10.8V19.2C5.99999 20.187 6.81301 21 7.79999 21H22.2C23.187 21 24 20.187 24 19.2V10.8C24 9.81301 23.187 8.99999 22.2 8.99999H7.79999ZM8.04843 10.2H21.9504L16.6066 15.5355C15.711 16.4298 14.2781 16.4297 13.3828 15.5344L8.04843 10.2ZM22.8 11.0473V18.9527L18.8414 15L22.8 11.0473ZM7.19999 11.0484L11.1516 15L7.19999 18.9516V11.0484ZM17.993 15.8473L21.9516 19.8H8.04843L12 15.8484L12.5344 16.3828C13.8879 17.7363 16.0996 17.7373 17.4539 16.3852L17.993 15.8473Z" fill="#5B6339"/>
</svg>
